<svg width="44" height="34" viewBox="0 0 44 34" fill="none" xmlns="http://www.w3.org/2000/svg">
<g clip-path="url(#clip0_3222_25)">
<path d="M13.4 6.375C14.2553 6.375 15.0756 6.03918 15.6804 5.4414C16.2852 4.84363 16.625 4.03288 16.625 3.1875C16.625 2.34212 16.2852 1.53137 15.6804 0.933597C15.0756 0.335825 14.2553 0 13.4 0C12.5447 0 11.7244 0.335825 11.1196 0.933597C10.5148 1.53137 10.175 2.34212 10.175 3.1875C10.175 4.03288 10.5148 4.84363 11.1196 5.4414C11.7244 6.03918 12.5447 6.375 13.4 6.375ZM12.8625 31.875V23.375H13.9375V31.875C13.9375 33.0504 14.8983 34 16.0875 34C17.2767 34 18.2375 33.0504 18.2375 31.875V12.75H22H26.3H27.375C28.5642 12.75 29.525 11.8004 29.525 10.625C29.525 9.44961 28.5642 8.5 27.375 8.5H26.3V4.25H39.2V17H26.3V14.875H22V18.0625C22 19.8223 23.4445 21.25 25.225 21.25H40.275C42.0555 21.25 43.5 19.8223 43.5 18.0625V3.1875C43.5 1.42773 42.0555 0 40.275 0H25.225C23.4445 0 22 1.42773 22 3.1875V8.5H16.8333H12.3989C10.1347 8.5 8.03842 9.67539 6.86936 11.5945L2.95233 18.0359C2.34092 19.0387 2.67014 20.3469 3.68467 20.9512C4.6992 21.5555 6.0228 21.2301 6.6342 20.2273L8.56249 17.0598V31.875C8.56249 33.0504 9.52327 34 10.7125 34C11.9017 34 12.8625 33.0504 12.8625 31.875Z" fill="white"/>
</g>
<defs>
<clipPath id="clip0_3222_25">
<rect width="43" height="34" fill="white" transform="translate(0.5)"/>
</clipPath>
</defs>
</svg>
