<svg width="35" height="34" viewBox="0 0 35 34" fill="none" xmlns="http://www.w3.org/2000/svg">
<g clip-path="url(#clip0_3222_29)">
<path d="M22.0023 2.31094C19.4656 1.58711 16.816 3.05469 16.0922 5.59141L15.7137 6.91953C15.468 7.78281 15.023 8.57969 14.4188 9.24375L11.0121 12.9891C10.4211 13.6398 10.4676 14.6492 11.1184 15.2402C11.7691 15.8313 12.7785 15.7848 13.3695 15.134L16.7762 11.3887C17.7125 10.3594 18.3965 9.13086 18.775 7.79609L19.1535 6.46797C19.3926 5.62461 20.2758 5.1332 21.1258 5.37227C21.9758 5.61133 22.4605 6.49453 22.2215 7.34453L21.843 8.67266C21.4645 9.99414 20.8668 11.2426 20.0766 12.3582C19.7312 12.843 19.6914 13.4805 19.9637 14.0117C20.2359 14.543 20.7805 14.875 21.3781 14.875H30.25C30.8344 14.875 31.3125 15.3531 31.3125 15.9375C31.3125 16.3891 31.027 16.7809 30.6219 16.9336C30.1305 17.1195 29.7586 17.5313 29.6324 18.0426C29.5063 18.5539 29.6391 19.0918 29.9844 19.4836C30.1504 19.6695 30.25 19.9152 30.25 20.1875C30.25 20.7055 29.8781 21.1371 29.3867 21.2301C28.8422 21.3363 28.384 21.7148 28.1914 22.2395C27.9988 22.7641 28.0852 23.3484 28.4305 23.7867C28.5699 23.966 28.6562 24.1918 28.6562 24.4441C28.6562 24.8891 28.3773 25.2809 27.9789 25.4336C27.2152 25.7324 26.8035 26.5559 27.0227 27.3461C27.0492 27.4324 27.0625 27.532 27.0625 27.6316C27.0625 28.216 26.5844 28.6941 26 28.6941H19.5254C18.6887 28.6941 17.8652 28.4484 17.168 27.9836L13.0707 25.2543C12.3402 24.7629 11.3508 24.9621 10.8594 25.6992C10.368 26.4363 10.5672 27.4191 11.3043 27.9105L15.4016 30.6398C16.6234 31.4566 18.0578 31.8883 19.5254 31.8883H26C28.3043 31.8883 30.177 30.0555 30.25 27.7711C31.2195 26.9941 31.8438 25.7988 31.8438 24.4508C31.8438 24.152 31.8105 23.8664 31.7574 23.5875C32.7801 22.8105 33.4375 21.582 33.4375 20.2008C33.4375 19.7691 33.3711 19.3508 33.2516 18.959C34.0219 18.1754 34.5 17.1129 34.5 15.9375C34.5 13.5934 32.6008 11.6875 30.25 11.6875H24.1207C24.4328 10.9969 24.6984 10.2797 24.9043 9.54922L25.2828 8.2211C26.0066 5.68438 24.5391 3.03477 22.0023 2.31094ZM2.625 12.75C1.44961 12.75 0.5 13.6996 0.5 14.875V29.75C0.5 30.9254 1.44961 31.875 2.625 31.875H6.875C8.05039 31.875 9 30.9254 9 29.75V14.875C9 13.6996 8.05039 12.75 6.875 12.75H2.625Z" fill="white"/>
</g>
<defs>
<clipPath id="clip0_3222_29">
<rect width="34" height="34" fill="white" transform="translate(0.5)"/>
</clipPath>
</defs>
</svg>
