<?xml version="1.0" encoding="utf-8"?>
<!-- Generator: Adobe Illustrator 24.1.0, SVG Export Plug-In . SVG Version: 6.00 Build 0)  -->
<svg version="1.1" id="Capa_1" xmlns="http://www.w3.org/2000/svg" xmlns:xlink="http://www.w3.org/1999/xlink" x="0px" y="0px"
	 viewBox="0 0 60 60" style="enable-background:new 0 0 60 60;" xml:space="preserve">
<style type="text/css">
	.st0{clip-path:url(#SVGID_2_);}
	.st1{fill:#E25300;}
</style>
<g>
	<defs>
		<rect id="SVGID_1_" width="60" height="60"/>
	</defs>
	<clipPath id="SVGID_2_">
		<use xlink:href="#SVGID_1_"  style="overflow:visible;"/>
	</clipPath>
	<g class="st0">
		<g>
			<path class="st1" d="M20.6,52.1C20.6,52.1,20.6,52.1,20.6,52.1c-2,0-4-0.7-5.5-1.9c-1.6-1.2-2.7-3-3.2-4.9
				c-0.5-1.9-0.3-4,0.5-5.8c0.8-1.8,2.2-3.3,3.9-4.3c2-1.1,3.5-3,4.1-5.2c0.6-2.1,1.9-3.9,3.6-5.2c1.7-1.3,3.8-2,6-2s4.3,0.7,6,2
				c1.7,1.3,3,3.1,3.6,5.2c0.6,2.2,2.1,4.1,4.1,5.2c1.7,1,3.1,2.5,3.9,4.3c0.8,1.8,1,3.9,0.5,5.8c-0.5,1.9-1.6,3.7-3.2,4.9
				c-1.6,1.2-3.5,1.9-5.5,1.9c-1.2,0-2.4-0.2-3.5-0.7c-3.7-1.5-8-1.5-11.7,0C23,51.9,21.8,52.1,20.6,52.1z M30,25.8
				c-1.5,0-3,0.5-4.2,1.4c-1.2,0.9-2.1,2.2-2.5,3.6c-0.9,3-2.8,5.5-5.5,7c-1.2,0.6-2.1,1.7-2.6,2.9c-0.5,1.2-0.6,2.6-0.3,3.9
				c0.3,1.3,1.1,2.4,2.1,3.3c1,0.8,2.3,1.3,3.7,1.3c0,0,0,0,0,0c0.8,0,1.6-0.2,2.3-0.5c4.5-1.9,9.6-1.9,14,0
				c0.8,0.3,1.5,0.5,2.3,0.5c0,0,0,0,0,0c1.3,0,2.6-0.5,3.7-1.3c1-0.8,1.8-2,2.1-3.3s0.2-2.7-0.3-3.9c-0.5-1.2-1.5-2.2-2.6-2.9
				c0,0,0,0,0,0c-2.7-1.5-4.7-4-5.5-7c-0.4-1.4-1.3-2.7-2.5-3.6C33,26.3,31.5,25.8,30,25.8z"/>
		</g>
		<g>
			<path class="st1" d="M48.8,30c3.1,0,5.6-2.5,5.6-5.6s-2.5-5.6-5.6-5.6s-5.6,2.5-5.6,5.6S45.6,30,48.8,30z"/>
		</g>
		<g>
			<path class="st1" d="M11.3,30c3.1,0,5.6-2.5,5.6-5.6s-2.5-5.6-5.6-5.6s-5.6,2.5-5.6,5.6S8.1,30,11.3,30z"/>
		</g>
		<g>
			<path class="st1" d="M22.5,18.8c3.1,0,5.6-2.5,5.6-5.6s-2.5-5.6-5.6-5.6s-5.6,2.5-5.6,5.6S19.4,18.8,22.5,18.8z"/>
		</g>
		<g>
			<path class="st1" d="M37.5,18.8c3.1,0,5.6-2.5,5.6-5.6s-2.5-5.6-5.6-5.6s-5.6,2.5-5.6,5.6S34.4,18.8,37.5,18.8z"/>
		</g>
	</g>
</g>
</svg>
