<svg width="41" height="40" viewBox="0 0 41 40" fill="none" xmlns="http://www.w3.org/2000/svg">
<g clip-path="url(#clip0_3_52)">
<path d="M18.6284 2C15.0683 2 11.5882 3.05568 8.6281 5.03355C5.66802 7.01141 3.36091 9.82263 1.99853 13.1117C0.636156 16.4008 0.279696 20.02 0.97423 23.5116C1.66876 27.0033 3.3831 30.2106 5.90044 32.7279C8.41779 35.2453 11.6251 36.9596 15.1167 37.6541C18.6084 38.3487 22.2276 37.9922 25.5167 36.6298C28.8057 35.2674 31.6169 32.9603 33.5948 30.0003C35.5727 27.0402 36.6284 23.5601 36.6284 20C36.6231 15.2277 34.725 10.6524 31.3505 7.27783C27.976 3.90331 23.4007 2.00521 18.6284 2ZM18.6284 35C15.6616 35 12.7615 34.1203 10.2948 32.472C7.82807 30.8238 5.90549 28.4811 4.77017 25.7402C3.63486 22.9994 3.33781 19.9834 3.91658 17.0736C4.49536 14.1639 5.92397 11.4912 8.02176 9.3934C10.1195 7.29561 12.7923 5.867 15.702 5.28822C18.6117 4.70944 21.6277 5.00649 24.3686 6.14181C27.1095 7.27712 29.4522 9.19971 31.1004 11.6664C32.7486 14.1332 33.6284 17.0333 33.6284 20C33.6239 23.9769 32.0421 27.7896 29.23 30.6017C26.4179 33.4137 22.6052 34.9955 18.6284 35Z" fill="#E25300"/>
<path d="M24.5897 18.0312L17.8139 13.3016C17.454 13.0506 17.0323 12.9031 16.5945 12.875C16.1566 12.8469 15.7195 12.9394 15.3305 13.1423C14.9415 13.3453 14.6156 13.6509 14.3882 14.0261C14.1607 14.4013 14.0405 14.8316 14.0405 15.2703V24.7297C14.0402 25.1686 14.1602 25.5991 14.3876 25.9745C14.6149 26.3499 14.9409 26.6557 15.33 26.8587C15.7191 27.0617 16.1564 27.1541 16.5944 27.1258C17.0323 27.0976 17.4541 26.9497 17.8139 26.6984L24.5897 21.9687V21.9675C24.9066 21.7463 25.1654 21.4519 25.3442 21.1092C25.5229 20.7666 25.6162 20.3858 25.6162 19.9993C25.6162 19.6129 25.5229 19.2321 25.3442 18.8894C25.1654 18.5468 24.9066 18.2524 24.5897 18.0312Z" fill="#E25300"/>
</g>
<defs>
<clipPath id="clip0_3_52">
<rect width="40" height="40" fill="white" transform="translate(0.5)"/>
</clipPath>
</defs>
</svg>
