<svg width="49" height="34" viewBox="0 0 49 34" fill="none" xmlns="http://www.w3.org/2000/svg">
<path d="M24.4994 0C25.1069 0 25.7069 0.106229 26.2769 0.3111L47.3139 7.99754C48.0264 8.26311 48.4988 8.94601 48.4988 9.71238C48.4988 10.4787 48.0264 11.1617 47.3139 11.4272L42.9715 13.0131C44.2014 14.9707 44.8989 17.285 44.8989 19.7207V21.8529C44.8989 24.0078 45.7089 26.231 46.5714 27.9838C47.0589 28.9702 47.6139 29.9415 48.2589 30.8368C48.4988 31.1631 48.5663 31.588 48.4313 31.975C48.2964 32.362 47.9814 32.6503 47.5914 32.7489L42.7915 33.963C42.4765 34.0465 42.139 33.9857 41.8615 33.8112C41.584 33.6367 41.389 33.3484 41.329 33.0221C40.684 29.7745 41.0065 26.8608 41.4865 24.7742C41.7265 23.6967 42.049 22.5965 42.499 21.5873V19.7207C42.499 17.4292 41.734 15.2667 40.4065 13.5366C39.4391 12.3605 38.1866 11.412 36.7166 10.8278L24.9419 6.14612C24.3269 5.90331 23.6294 6.20682 23.3895 6.82902C23.1495 7.45122 23.4494 8.15688 24.0644 8.39969L35.8391 13.0814C36.7691 13.4532 37.5866 14.0223 38.2541 14.7203L26.2844 19.0909C25.7144 19.2958 25.1144 19.402 24.5069 19.402C23.8994 19.402 23.2994 19.2958 22.7295 19.0909L1.68497 11.4272C0.972488 11.1692 0.5 10.4787 0.5 9.71238C0.5 8.94601 0.972488 8.26311 1.68497 7.99754L22.722 0.3111C23.292 0.106229 23.8919 0 24.4994 0ZM38.8991 28.5301C38.8991 31.2086 32.4492 33.9933 24.4994 33.9933C16.5496 33.9933 10.0998 31.2086 10.0998 28.5301L11.2472 17.4975L21.912 21.3976C22.7445 21.7011 23.6219 21.8529 24.4994 21.8529C25.3769 21.8529 26.2619 21.7011 27.0869 21.3976L37.7516 17.4975L38.8991 28.5301Z" fill="white"/>
</svg>
